# xmcd CD database file
#
# Track frame offsets:
#	150
#	61816
#	100946
#	136340
#	169454
#	201509
#	233811
#
# Disc length: 3451 seconds
#
# Revision: 0
# Processed by: cddbd v1.5.1PL0 Copyright (c) Steve Scherf et al.
# Submitted via: CDex 1.51
#
DISCID=620d7907
DTITLE=Sunny Murray - Sunshine and An Even Break (Never Giva A Sucker)
DYEAR=2002
DGENRE=Jazz
TTITLE0=Flower Trane
TTITLE1=Real
TTITLE2=Red Cross
TTITLE3=An Even Break
TTITLE4=Giblets
TTITLE5=Complete Affection
TTITLE6=Invisible Rules
EXTD=YEAR: 2002
EXTT0=
EXTT1=
EXTT2=
EXTT3=
EXTT4=
EXTT5=
EXTT6=
PLAYORDER=
